<?xml version="1.0" encoding="iso-8859-1"?>
<!-- Generator: Adobe Illustrator 19.0.0, SVG Export Plug-In . SVG Version: 6.00 Build 0)  -->
<svg version="1.1" id="Capa_1" xmlns="http://www.w3.org/2000/svg" xmlns:xlink="http://www.w3.org/1999/xlink" x="0px" y="0px"
	 viewBox="0 0 512 512" style="enable-background:new 0 0 512 512;" xml:space="preserve">
<path style="fill:#F4B74A;" d="M55.483,56.457c56.986-56.976,141.227-70.074,210.749-39.276
	c16.373,7.246,31.916,16.926,46.102,29.041c3.8,3.236,7.485,6.654,11.074,10.235c73.979,73.988,73.979,193.937,0,267.925
	c-73.988,73.979-193.937,73.979-267.925,0c-3.589-3.589-6.998-7.275-10.235-11.074c-12.115-14.177-21.796-29.729-29.041-46.102
	C-14.591,197.695-1.493,113.444,55.483,56.457z"/>
<path style="fill:#F9C662;" d="M16.207,267.206L266.232,17.181c16.373,7.246,31.916,16.926,46.102,29.041L45.25,313.308
	C33.134,299.131,23.454,283.579,16.207,267.206z"/>
<path style="fill:#FFD488;" d="M37.153,190.42c0-84.109,68.185-152.292,152.292-152.292c47.476,0,89.875,21.72,117.81,55.773
	c21.557,26.273,34.484,59.888,34.484,96.519c0,84.109-68.185,152.292-152.292,152.292c-36.641,0-70.256-12.945-96.529-34.503
	C58.872,280.285,37.153,237.887,37.153,190.42z"/>
<path style="fill:#F9C662;" d="M92.917,308.21L307.236,93.891l0.019,0.009c6.292,7.666,11.848,15.962,16.555,24.774
	c5.365,10.015,9.633,20.688,12.66,31.887c3.437,12.707,5.27,26.073,5.27,39.858c0,84.109-68.185,152.292-152.292,152.292
	c-13.796,0-27.161-1.833-39.858-5.27c-11.199-3.026-21.872-7.303-31.887-12.669C108.889,320.067,100.592,314.501,92.917,308.21z"/>
<path style="fill:#FFD488;" d="M117.701,324.774l206.109-206.099c5.365,10.015,9.633,20.688,12.66,31.887L149.587,337.443
	C138.389,334.417,127.716,330.14,117.701,324.774z"/>
<g>
	<path style="fill:#E0A33F;" d="M189.446,271.997c-28.721,0-52.088-20.059-52.088-44.714c0-4.337,3.516-7.853,7.853-7.853
		s7.853,3.516,7.853,7.853c0,15.995,16.321,29.009,36.382,29.009s36.382-13.014,36.382-29.009s-16.321-29.009-36.382-29.009
		c-28.721,0-52.088-20.059-52.088-44.715s23.367-44.714,52.088-44.714s52.088,20.059,52.088,44.714c0,4.337-3.516,7.853-7.853,7.853
		s-7.853-3.516-7.853-7.853c0-15.995-16.321-29.009-36.382-29.009s-36.382,13.014-36.382,29.009s16.321,29.01,36.382,29.01
		c28.721,0,52.088,20.059,52.088,44.714S218.166,271.997,189.446,271.997z"/>
	<path style="fill:#E0A33F;" d="M189.446,286.741c-4.337,0-7.853-3.516-7.853-7.853V101.951c0-4.337,3.516-7.853,7.853-7.853
		c4.337,0,7.853,3.516,7.853,7.853v176.937C197.299,283.225,193.783,286.741,189.446,286.741z"/>
	<path style="fill:#E0A33F;" d="M189.446,350.565c-36.943,0-72.994-12.886-101.51-36.285C50.672,283.715,29.3,238.57,29.3,190.42
		c0-88.304,71.841-160.145,160.146-160.145c48.155,0,93.308,21.376,123.88,58.645c23.385,28.501,36.265,64.548,36.265,101.5
		C349.591,278.724,277.751,350.565,189.446,350.565z M189.446,45.98c-79.644,0-144.441,64.795-144.441,144.44
		c0,43.428,19.278,84.148,52.892,111.719c25.717,21.101,58.229,32.721,91.549,32.721c79.644,0,144.44-64.795,144.44-144.44
		c0-33.329-11.614-65.837-32.701-91.539C273.606,65.261,232.879,45.98,189.446,45.98z"/>
</g>
<polygon style="fill:#E05F5F;" points="512,393.182 386.18,511.029 260.359,393.182 317.719,393.182 317.719,0.971 454.641,0.971 
	454.641,393.182 "/>
<g>
</g>
<g>
</g>
<g>
</g>
<g>
</g>
<g>
</g>
<g>
</g>
<g>
</g>
<g>
</g>
<g>
</g>
<g>
</g>
<g>
</g>
<g>
</g>
<g>
</g>
<g>
</g>
<g>
</g>
</svg>
