<?xml version="1.0" encoding="iso-8859-1"?>
<!-- Generator: Adobe Illustrator 19.0.0, SVG Export Plug-In . SVG Version: 6.00 Build 0)  -->
<svg version="1.1" id="Capa_1" xmlns="http://www.w3.org/2000/svg" xmlns:xlink="http://www.w3.org/1999/xlink" x="0px" y="0px"
	 viewBox="0 0 512 512" style="enable-background:new 0 0 512 512;" xml:space="preserve">
<circle style="fill:#C9C6CA;" cx="256" cy="256" r="256"/>
<path style="fill:#AEA8AF;" d="M256,12.872V0C114.615,0,0,114.615,0,256s114.615,256,256,256v-12.872
	c0-6.622,5.286-11.868,11.899-12.204C390.072,480.732,487.226,379.711,487.226,256c0-123.712-97.154-224.732-219.327-230.925
	C261.286,24.74,256,19.493,256,12.872z"/>
<circle style="fill:#F5DCB4;" cx="256" cy="256" r="214.71"/>
<circle style="fill:#FAEBC8;" cx="256" cy="256" r="181.68"/>
<circle style="fill:#FFF7DC;" cx="256" cy="256" r="99.1"/>
<g>
	<path style="fill:#4B3F4E;" d="M363.355,247.742h-99.097V132.129c0-4.56-3.694-8.258-8.258-8.258s-8.258,3.698-8.258,8.258v115.613
		h-24.774c-4.565,0-8.258,3.698-8.258,8.258s3.694,8.258,8.258,8.258h24.774v24.774c0,4.56,3.694,8.258,8.258,8.258
		s8.258-3.698,8.258-8.258v-24.774h99.097c4.565,0,8.258-3.698,8.258-8.258S367.919,247.742,363.355,247.742z"/>
	<path style="fill:#4B3F4E;" d="M256,107.355c-4.565,0-8.258-3.698-8.258-8.258V74.323c0-4.56,3.694-8.258,8.258-8.258
		s8.258,3.698,8.258,8.258v24.774C264.258,103.657,260.565,107.355,256,107.355z"/>
	<path style="fill:#4B3F4E;" d="M256,445.935c-4.565,0-8.258-3.698-8.258-8.258v-24.774c0-4.56,3.694-8.258,8.258-8.258
		s8.258,3.698,8.258,8.258v24.774C264.258,442.238,260.565,445.935,256,445.935z"/>
	<path style="fill:#4B3F4E;" d="M437.677,264.258h-24.774c-4.565,0-8.258-3.698-8.258-8.258s3.694-8.258,8.258-8.258h24.774
		c4.565,0,8.258,3.698,8.258,8.258S442.242,264.258,437.677,264.258z"/>
	<path style="fill:#4B3F4E;" d="M99.097,264.258H74.323c-4.565,0-8.258-3.698-8.258-8.258s3.694-8.258,8.258-8.258h24.774
		c4.565,0,8.258,3.698,8.258,8.258S103.661,264.258,99.097,264.258z"/>
</g>
<g>
	<path style="fill:#6F6571;" d="M112.96,181.677c-1.403,0-2.823-0.355-4.121-1.105l-14.306-8.258
		c-3.952-2.282-5.306-7.331-3.024-11.282s7.339-5.306,11.282-3.024l14.306,8.258c3.952,2.282,5.306,7.331,3.024,11.282
		C118.589,180.198,115.815,181.677,112.96,181.677z"/>
	<path style="fill:#6F6571;" d="M413.331,355.097c-1.403,0-2.823-0.355-4.121-1.105l-14.306-8.258
		c-3.952-2.282-5.306-7.331-3.024-11.282c2.282-3.956,7.339-5.306,11.282-3.024l14.306,8.258c3.952,2.282,5.306,7.331,3.024,11.282
		C418.96,353.617,416.185,355.097,413.331,355.097z"/>
	<path style="fill:#6F6571;" d="M338.573,121.226c-1.403,0-2.823-0.355-4.121-1.105c-3.952-2.282-5.306-7.331-3.024-11.282
		l8.258-14.306c2.282-3.956,7.339-5.306,11.282-3.024c3.952,2.282,5.306,7.331,3.024,11.282l-8.258,14.306
		C344.202,119.746,341.427,121.226,338.573,121.226z"/>
	<path style="fill:#6F6571;" d="M165.153,421.597c-1.403,0-2.823-0.355-4.121-1.105c-3.952-2.282-5.306-7.331-3.024-11.282
		l8.258-14.306c2.274-3.952,7.339-5.302,11.282-3.024c3.952,2.282,5.306,7.331,3.024,11.282l-8.258,14.306
		C170.782,420.117,168.008,421.597,165.153,421.597z"/>
	<path style="fill:#6F6571;" d="M399.04,181.677c-2.855,0-5.629-1.48-7.161-4.129c-2.282-3.952-0.927-9,3.024-11.282l14.306-8.258
		c3.935-2.282,9-0.927,11.282,3.024s0.927,9-3.024,11.282l-14.306,8.258C401.863,181.323,400.444,181.677,399.04,181.677z"/>
	<path style="fill:#6F6571;" d="M98.669,355.097c-2.855,0-5.629-1.48-7.161-4.129c-2.282-3.952-0.927-9,3.024-11.282l14.306-8.258
		c3.927-2.282,8.992-0.931,11.282,3.024c2.282,3.952,0.927,9-3.024,11.282l-14.306,8.258
		C101.492,354.742,100.073,355.097,98.669,355.097z"/>
	<path style="fill:#6F6571;" d="M173.427,121.226c-2.855,0-5.629-1.48-7.161-4.129l-8.258-14.306c-2.282-3.952-0.927-9,3.024-11.282
		c3.935-2.282,8.992-0.931,11.282,3.024l8.258,14.306c2.282,3.952,0.927,9-3.024,11.282
		C176.25,120.871,174.831,121.226,173.427,121.226z"/>
	<path style="fill:#6F6571;" d="M346.847,421.597c-2.855,0-5.629-1.48-7.161-4.129l-8.258-14.306c-2.282-3.952-0.927-9,3.024-11.282
		c3.935-2.278,9-0.927,11.282,3.024l8.258,14.306c2.282,3.952,0.927,9-3.024,11.282C349.669,421.242,348.25,421.597,346.847,421.597
		z"/>
	<circle style="fill:#6F6571;" cx="256" cy="256" r="16.516"/>
</g>
<g>
</g>
<g>
</g>
<g>
</g>
<g>
</g>
<g>
</g>
<g>
</g>
<g>
</g>
<g>
</g>
<g>
</g>
<g>
</g>
<g>
</g>
<g>
</g>
<g>
</g>
<g>
</g>
<g>
</g>
</svg>
