<svg id="Capa_1" enable-background="new 0 0 510 510" height="512" viewBox="0 0 510 510" width="512" xmlns="http://www.w3.org/2000/svg"><circle cx="203.855" cy="255" fill="#ffd17b" r="203.855"/><circle cx="203.855" cy="255" fill="#ff4b00" r="173.855"/><circle cx="306.145" cy="255" fill="#ffe9cb" r="203.855"/><path d="m510 255c0 112.406-91.449 203.855-203.855 203.855v-407.71c112.406 0 203.855 91.449 203.855 203.855z" fill="#ffd17b"/><circle cx="306.145" cy="255" fill="#ff9100" r="173.855"/><path d="m480 255c0 95.866-77.989 173.855-173.855 173.855v-347.71c95.866 0 173.855 77.989 173.855 173.855z" fill="#ff4b00"/><path d="m369.515 286.07c0 23.99-18.4 46.08-48.37 46.08v15.14c0 8.29-6.72 15-15 15s-15-6.71-15-15v-15.14c-17.57 0-32.59-4.72-44.9-19.49-5.3-6.37-4.44-15.83 1.93-21.13 6.36-5.3 15.82-4.44 21.12 1.93 4.48 5.38 11.12 8.62 17.77 8.69h36.38c8.89 0 16.07-7.2 16.07-16.08 0-8.86-7.21-16.07-16.07-16.07h-34.6c-25.41 0-46.07-20.67-46.07-46.07 0-23.42 17.81-46.07 48.37-46.07v-15.15c0-8.28 6.72-15 15-15s15 6.72 15 15v15.15c19.99 0 36.25 9.88 45.83 24.87l.18.28c4.46 6.98 2.42 16.25-4.56 20.71s-16.26 2.42-20.72-4.56l-.17-.28c-4.31-6.73-11.78-10.95-19.5-11.02h-33.36c-8.88 0-16.07 7.18-16.07 16.07 0 8.86 7.21 16.07 16.07 16.07h34.6c25.41 0 46.07 20.67 46.07 46.07z" fill="#ffe9cb"/><g fill="#ffd17b"><path d="m369.515 286.07c0 23.99-18.4 46.08-48.37 46.08v15.14c0 8.29-6.72 15-15 15v-60.14h17.3c8.89 0 16.07-7.2 16.07-16.08 0-8.86-7.21-16.07-16.07-16.07h-17.3v-30h17.3c25.41 0 46.07 20.67 46.07 46.07z"/><path d="m322.205 207.86h-16.06v-60.15c8.28 0 15 6.72 15 15v15.15c19.99 0 36.25 9.88 45.83 24.87l.18.28c4.46 6.98 2.42 16.25-4.56 20.71s-16.26 2.42-20.72-4.56l-.17-.28c-4.31-6.73-11.78-10.95-19.5-11.02z"/></g></svg>