<svg id="Capa_1" enable-background="new 0 0 512 512" height="512" viewBox="0 0 512 512" width="512" xmlns="http://www.w3.org/2000/svg"><g><g><path d="m469.852 206.762-37.127-11.15c-4.518-1.357-8.085-4.88-9.413-9.406-3.895-13.273-9.195-25.951-15.727-37.861-2.275-4.148-2.257-9.175-.015-13.342l18.397-34.19c2.941-5.466 1.95-12.214-2.439-16.603l-27.87-27.87c-4.389-4.389-11.137-5.38-16.603-2.439l-34.19 18.397c-4.167 2.242-9.194 2.26-13.342-.015-11.911-6.533-24.588-11.832-37.861-15.727-4.526-1.328-8.049-4.896-9.406-9.413l-11.15-37.127c-1.786-5.946-7.259-10.016-13.466-10.016h-39.414c-6.207 0-11.679 4.07-13.464 10.015l-11.15 37.127c-1.357 4.518-4.88 8.085-9.406 9.413-13.273 3.895-25.951 9.195-37.861 15.727-4.148 2.275-9.176 2.257-13.342.015l-34.19-18.397c-5.466-2.941-12.214-1.95-16.603 2.439l-27.87 27.871c-4.389 4.389-5.38 11.137-2.439 16.603l18.397 34.19c2.242 4.167 2.26 9.194-.015 13.342-6.533 11.911-11.832 24.588-15.727 37.861-1.328 4.526-4.896 8.049-9.413 9.406l-37.127 11.15c-5.946 1.785-10.016 7.258-10.016 13.465v39.414c0 6.207 4.07 11.679 10.015 13.464l37.127 11.15c4.518 1.357 8.085 4.88 9.413 9.406 3.895 13.273 9.195 25.951 15.727 37.861 2.275 4.148 2.257 9.176.015 13.342l-18.397 34.19c-2.941 5.466-1.95 12.214 2.439 16.603l27.87 27.87c4.389 4.389 11.137 5.38 16.603 2.439l34.19-18.397c4.167-2.242 9.194-2.26 13.342.015 11.91 6.533 24.588 11.832 37.861 15.727 4.526 1.328 8.049 4.896 9.406 9.413l64.028 47.142c6.207 0 11.679-4.07 13.464-10.015l11.15-37.127c1.357-4.518 4.88-8.085 9.406-9.413 13.273-3.895 25.951-9.195 37.861-15.727 4.148-2.275 9.175-2.257 13.342-.015l62.705-62.705c-2.242-4.167-2.26-9.194.015-13.342 6.533-11.91 11.832-24.588 15.727-37.861 1.328-4.526 4.896-8.049 9.413-9.406l37.127-11.15c5.944-1.785 10.015-7.258 10.015-13.464v-39.414c.003-6.207-4.067-11.68-10.012-13.465zm-229.919 156.338c-68.023 0-123.167-55.144-123.167-123.167s55.144-123.167 123.167-123.167 123.167 55.144 123.167 123.167c0 68.024-55.143 123.167-123.167 123.167z" fill="#f1f1fb"/><path d="m469.852 206.762-37.127-11.15c-4.518-1.357-8.085-4.88-9.413-9.406-3.895-13.273-9.195-25.951-15.727-37.861-2.275-4.148-2.257-9.176-.015-13.342l18.397-34.19c2.941-5.466 1.95-12.214-2.439-16.603l-27.87-27.87c-4.389-4.389-11.137-5.38-16.603-2.439l-34.19 18.397c-4.166 2.242-9.194 2.26-13.342-.015-11.911-6.533-24.588-11.832-37.861-15.727-4.526-1.328-8.049-4.896-9.406-9.413l-11.15-37.127c-1.786-5.946-7.259-10.016-13.466-10.016h-19.707v116.767c68.023 0 123.167 55.144 123.167 123.167s-55.143 123.166-123.166 123.166v102.257l19.707 14.51c6.207 0 11.679-4.071 13.464-10.015l11.15-37.127c1.357-4.518 4.88-8.085 9.406-9.413 13.273-3.895 25.951-9.195 37.861-15.727 4.148-2.275 9.176-2.257 13.342-.015l62.705-62.705c-2.242-4.167-2.26-9.194.015-13.342 6.533-11.91 11.832-24.588 15.727-37.861 1.328-4.526 4.896-8.049 9.413-9.406l37.127-11.15c5.944-1.785 10.015-7.258 10.015-13.464v-39.414c.001-6.208-4.069-11.681-10.014-13.466z" fill="#e1daf8"/></g><g><path d="m251.183 500.447c15.443 15.408 40.445 15.403 55.881-.012l193.486-193.229c15.267-15.267 15.267-40.02 0-55.288-15.267-15.267-40.02-15.267-55.288 0l-166.132 166.133-49.794-49.794c-15.259-15.259-39.998-15.259-55.257 0-15.271 15.271-15.257 40.034.031 55.288z" fill="#fa6d71"/><path d="m500.55 251.919c-15.267-15.267-40.02-15.267-55.288 0l-166.132 166.132v93.949c10.109-.003 20.217-3.858 27.934-11.565l193.486-193.229c15.267-15.267 15.267-40.02 0-55.287z" fill="#f94580"/></g></g></svg>