<svg id="Layer_1" data-name="Layer 1" xmlns="http://www.w3.org/2000/svg" viewBox="0 0 705.1 296.5">
  <path d="M115.4,61.8a55.2,55.2,0,1,0-110.3,0c0,16.4,12.4,28.5,22.3,45a93.6,93.6,0,0,1,0,96.1c-9.9,16.5-22.3,26.3-22.3,45a55.2,55.2,0,1,0,110.3,0c0-17.8-12.5-28.5-22.3-45a93.6,93.6,0,0,1,0-96.1C102.9,90.3,115.4,76.9,115.4,61.8Z" transform="translate(-5.1 -6.6)"/>
  <g>
    <path d="M198.2,116.1l2.6,30.6-1.3-4.1A48,48,0,0,1,211.8,126a62.8,62.8,0,0,1,16.4-10.6c5.7-2.4,10.5-3.7,14.5-3.7l-1.3,26.1c-8.2-.5-15.3,1-21.3,4.6a38.8,38.8,0,0,0-19.3,33.4v47.3H174.7v-107Z" transform="translate(-5.1 -6.6)"/>
    <path d="M318.2,225.6c-12.4,0-23-2.4-31.9-7.3a50,50,0,0,1-20.4-20.1c-4.8-8.6-7.2-18.5-7.2-29.5a53,53,0,0,1,8.1-28.8,59.4,59.4,0,0,1,21.7-20.5,60.8,60.8,0,0,1,30.2-7.7c14.3,0,26.2,4.2,35.7,12.5s15.7,20,19,35l-87.1,30.2L280.2,174l69.7-25-5.4,3.3a36.6,36.6,0,0,0-9.7-13.9c-4.4-4-10.4-6-18.1-6a31,31,0,0,0-16.5,4.5,32.2,32.2,0,0,0-11.5,12.2,38,38,0,0,0-4.2,18.3,38.2,38.2,0,0,0,4.5,18.8,34.3,34.3,0,0,0,12.2,12.6,33.7,33.7,0,0,0,17.5,4.6,34.9,34.9,0,0,0,13.2-2.6,67.8,67.8,0,0,0,11.9-6.3l12,19.4a82.6,82.6,0,0,1-18.3,8.5A62.9,62.9,0,0,1,318.2,225.6Z" transform="translate(-5.1 -6.6)"/>
    <path d="M394.4,127.9a14.2,14.2,0,0,1,9.9-4.2c3.4,0,6.6,1.4,9.7,4.2a14,14,0,0,1,4.6,10.4,13.6,13.6,0,0,1-4.6,10.6,14.9,14.9,0,0,1-9.7,3.9,14.7,14.7,0,0,1-9.9-3.8c-2.9-2.5-4.4-6-4.4-10.5A14.4,14.4,0,0,1,394.4,127.9Zm0,70.3a14.3,14.3,0,0,1,9.9-4.3c3.4,0,6.6,1.5,9.7,4.3a14.2,14.2,0,0,1,0,20.9c-3.1,2.6-6.3,4-9.7,4a14.9,14.9,0,0,1-9.9-4,14.6,14.6,0,0,1,0-20.9Z" transform="translate(-5.1 -6.6)"/>
    <path d="M491.6,225.6a52.4,52.4,0,0,1-27.1-7,49.6,49.6,0,0,1-18.9-20.1c-4.6-8.6-6.9-18.8-6.9-30.3s2.5-22.1,7.4-30.6a52,52,0,0,1,20.1-19.4c8.4-4.5,17.9-6.7,28.5-6.7a55.2,55.2,0,0,1,23.3,5,40.1,40.1,0,0,1,17.3,13.9l-.8,8.9V24.7h26V223.1H534.2V197.8l2.8,6.9a66.4,66.4,0,0,1-19.4,14.9A55.1,55.1,0,0,1,491.6,225.6Zm8.2-22.2a37.8,37.8,0,0,0,15.8-3.1,30.7,30.7,0,0,0,11.7-8.8,32.3,32.3,0,0,0,6.9-13.4V156.7a29.4,29.4,0,0,0-6.7-12.7,35.3,35.3,0,0,0-12.2-8.5,37.7,37.7,0,0,0-15.5-3.1,34.1,34.1,0,0,0-17.3,4.5A34.5,34.5,0,0,0,470,149.3a35.5,35.5,0,0,0-4.7,18.4,35.6,35.6,0,0,0,17.4,31A32.8,32.8,0,0,0,499.8,203.4Z" transform="translate(-5.1 -6.6)"/>
    <path d="M591.7,168.4a54.5,54.5,0,0,1,28.8-49.3,64.2,64.2,0,0,1,30.9-7.4c11.8,0,22.1,2.5,30.9,7.4a52.9,52.9,0,0,1,20.6,20.3,58.6,58.6,0,0,1,7.3,29,59.3,59.3,0,0,1-7.3,29.1,53,53,0,0,1-20.6,20.6c-8.8,5-19.2,7.5-31.1,7.5s-21.6-2.3-30.5-6.9a51.9,51.9,0,0,1-21.2-19.8C594.3,190.3,591.7,180.2,591.7,168.4Zm26.5.3a37.5,37.5,0,0,0,4.4,18,34.1,34.1,0,0,0,11.7,12.7,30.1,30.1,0,0,0,16.6,4.8,30.6,30.6,0,0,0,16.9-4.8,33.1,33.1,0,0,0,11.6-12.7,38.5,38.5,0,0,0,4.2-18,37.5,37.5,0,0,0-4.2-17.9A34.9,34.9,0,0,0,667.8,138a30.6,30.6,0,0,0-16.9-4.8,30,30,0,0,0-16.8,4.8,34.3,34.3,0,0,0-11.6,12.9A36.9,36.9,0,0,0,618.2,168.7Z" transform="translate(-5.1 -6.6)"/>
  </g>
</svg>
