<?xml version="1.0" encoding="utf-8"?>
<!-- Generator: Adobe Illustrator 26.0.1, SVG Export Plug-In . SVG Version: 6.00 Build 0)  -->
<svg version="1.1" id="Layer_1" xmlns="http://www.w3.org/2000/svg" xmlns:xlink="http://www.w3.org/1999/xlink" x="0px" y="0px"
	 viewBox="0 0 110.4 296.5" style="enable-background:new 0 0 110.4 296.5;" xml:space="preserve">
<path d="M110.3,55.2C111.6,24.7,88-1,57.5-2.3S1.3,20,0,50.5c-0.1,1.6-0.1,3.1,0,4.7c0,16.4,12.4,28.5,22.3,45
	c17.7,29.6,17.7,66.5,0,96.1C12.4,212.8,0,222.6,0,241.3c-1.3,30.5,22.3,56.2,52.8,57.5s56.2-22.3,57.5-52.8c0.1-1.6,0.1-3.1,0-4.7
	c0-17.8-12.5-28.5-22.3-45c-17.7-29.6-17.7-66.5,0-96.1C97.8,83.7,110.3,70.3,110.3,55.2z"/>
</svg>
