<svg height="512pt" viewBox="0 -46 512 512" width="512pt" xmlns="http://www.w3.org/2000/svg"><path d="m135 375h-45c-49.628906 0-90-40.371094-90-90s40.371094-90 90-90h45v30h-45c-33.089844 0-60 26.910156-60 60s26.910156 60 60 60h45zm0 0" fill="#6099b1"/><path d="m135 45h-25l-56.007812-41.996094-17.984376 23.992188 23.996094 18.003906h-60.003906v30h60.003906l-23.996094 18.003906 17.984376 23.992188 56.007812-41.996094h25zm0 0" fill="#6099b1"/><path d="m332 0h-152c-33 0-60 27-60 60s27 60 60 60h152c33 0 60-27 60-60s-27-60-60-60zm0 0" fill="#ffc72d"/><path d="m332 150h-152c-33 0-60 27-60 60s27 60 60 60h152c33 0 60-27 60-60s-27-60-60-60zm0 0" fill="#ffc72d"/><path d="m422 225h-45v-30h45c33.089844 0 60-26.910156 60-60s-26.910156-60-60-60h-45v-30h45c49.628906 0 90 40.371094 90 90s-40.371094 90-90 90zm0 0" fill="#3b4a51"/><path d="m437 303.003906-17.988281 23.992188 23.996093 18.003906h-66.007812v30h66.007812l-23.996093 18.003906 17.988281 23.992188 75-56.996094zm0 0" fill="#3b4a51"/><path d="m392 210c0 33-27 60-60 60h-76v-120h76c33 0 60 27 60 60zm0 0" fill="#f59d00"/><path d="m332 120h-76v-120h76c33 0 60 27 60 60s-27 60-60 60zm0 0" fill="#f59d00"/><path d="m332 300h-152c-33 0-60 27-60 60s27 60 60 60h152c33 0 60-27 60-60s-27-60-60-60zm0 0" fill="#ffc72d"/><path d="m392 360c0 33-27 60-60 60h-76v-120h76c33 0 60 27 60 60zm0 0" fill="#f59d00"/></svg>