<svg height="512" viewBox="0 0 128 128" width="512" xmlns="http://www.w3.org/2000/svg"><g><circle cx="74.586" cy="64" fill="#f68e5f" r="34.486"/><circle cx="74.586" cy="64" fill="#fffcee" r="27.57"/><path d="m74.586 65.75a1.751 1.751 0 0 1 -1.3-.584l-14-15.667a1.75 1.75 0 1 1 2.61-2.332l13.152 14.724 15.173-6.607a1.75 1.75 0 0 1 1.4 3.209l-16.336 7.107a1.753 1.753 0 0 1 -.699.15z" fill="#231887"/><g fill="#f68e5f"><path d="m74.586 34.68a1.75 1.75 0 0 0 -1.75 1.75v4.533a1.75 1.75 0 1 0 3.5 0v-4.533a1.75 1.75 0 0 0 -1.75-1.75z"/><path d="m74.586 85.287a1.75 1.75 0 0 0 -1.75 1.75v4.533a1.75 1.75 0 0 0 3.5 0v-4.533a1.75 1.75 0 0 0 -1.75-1.75z"/><path d="m102.156 62.25h-4.533a1.75 1.75 0 1 0 0 3.5h4.533a1.75 1.75 0 0 0 0-3.5z"/><path d="m51.549 62.25h-4.533a1.75 1.75 0 1 0 0 3.5h4.533a1.75 1.75 0 1 0 0-3.5z"/></g><g fill="#231887"><path d="m35.909 31.265h11.107a1.75 1.75 0 1 0 0-3.5h-11.107a1.75 1.75 0 0 0 0 3.5z"/><path d="m19 48.064h16.909a1.75 1.75 0 0 0 0-3.5h-16.909a1.75 1.75 0 1 0 0 3.5z"/><path d="m25.552 65.075a1.75 1.75 0 0 0 0 3.5h8.454a1.75 1.75 0 0 0 0-3.5z"/><path d="m37.659 84.164a1.749 1.749 0 0 0 -1.75-1.75h-16.909a1.75 1.75 0 0 0 0 3.5h16.909a1.749 1.749 0 0 0 1.75-1.75z"/><path d="m50.288 96.735h-16.282a1.75 1.75 0 1 0 0 3.5h16.282a1.75 1.75 0 0 0 0-3.5z"/></g></g></svg>