<svg id="Layer_1" enable-background="new 0 0 256 256" height="512" viewBox="0 0 256 256" width="512" xmlns="http://www.w3.org/2000/svg"><g><g><g><g><g><g><path d="m227.104 217.173v-127c0-5.523-4.477-10-10-10h-178.208c-5.523 0-10 4.477-10 10v127z" fill="#58595b"/></g><g><path d="m221.213 81.064c.567 1.255.89 2.643.89 4.11v122c0 2.761-2.239 5-5 5h-188.207v5h198.208v-127c0-4.057-2.42-7.541-5.891-9.11z" fill="#414042"/></g><g><path d="m212.41 217.173v-113.523c0-2.761-2.239-5-5-5h-158.82c-2.761 0-5 2.239-5 5v113.523z" fill="#5e9cf7"/></g><g><path d="m207.409 98.65v108.523c0 2.761-2.239 5-5 5h-158.818v5h168.819v-113.523c-.001-2.761-2.239-5-5.001-5z" fill="#478cf7"/></g><g><path d="m8 219.173v13.653c0 5.523 4.477 10 10 10h220c5.523 0 10-4.477 10-10v-13.653c0-1.105-.895-2-2-2h-236c-1.105 0-2 .896-2 2z" fill="#939598"/></g><g><path d="m246 217.173h-3v10.653c0 5.523-4.477 10-10 10h-220c-1.466 0-2.855-.323-4.11-.89 1.569 3.471 5.053 5.89 9.11 5.89h220c5.523 0 10-4.477 10-10v-13.653c0-1.104-.895-2-2-2z" fill="#808285"/></g><g><path d="m88.169 217.173v5.454c0 2.761 2.239 5 5 5h69.662c2.761 0 5-2.239 5-5v-5.454z" fill="#58595b"/></g></g></g></g></g><g><path d="m196.75 217.173h-137.5v-199c0-2.761 2.239-5 5-5h127.5c2.761 0 5 2.239 5 5z" fill="#f1f2f2"/></g><g><path d="m65.25 85.174c-1.104 0-2-.896-2-2v-53c0-1.104.896-2 2-2s2 .896 2 2v53c0 1.104-.896 2-2 2z" fill="#fff"/></g><circle cx="65.25" cy="22.208" fill="#fff" r="2"/><g><path d="m191.75 13.173h-5v189c0 2.761-2.239 5-5 5h-122.5v10h137.5v-199c0-2.761-2.239-5-5-5z" fill="#e6e7e8"/></g><g><path d="m191.75 13.173v194c0 2.761-2.239 5-5 5h-127.5v5h137.5v-199c0-2.761-2.239-5-5-5z" fill="#d1d3d4"/></g><g><g><circle cx="128" cy="68.24" fill="#ef7816" r="40"/></g><g><circle cx="128" cy="68.24" fill="#ffc91d" r="29.879"/></g><g><path d="m146.474 44.766c4.007 5.085 6.405 11.497 6.405 18.474 0 16.502-13.377 29.879-29.879 29.879-6.976 0-13.389-2.398-18.474-6.405 5.471 6.942 13.949 11.405 23.474 11.405 16.502 0 29.879-13.377 29.879-29.879 0-9.525-4.463-18.003-11.405-23.474z" fill="#ffa91a"/></g><path d="m131.016 64.732h-1.016v-11.082h1.016c3.055 0 5.541 2.486 5.541 5.541 0 1.104.896 2 2 2s2-.896 2-2c0-5.261-4.28-9.541-9.541-9.541h-1.016v-1.016c0-1.104-.896-2-2-2s-2 .896-2 2v1.016h-1.016c-5.261 0-9.541 4.28-9.541 9.541s4.28 9.541 9.541 9.541h1.016v14.098h-1.016c-3.055 0-5.541-2.485-5.541-5.541 0-1.104-.896-2-2-2s-2 .896-2 2c0 5.261 4.28 9.541 9.541 9.541h1.016v1.017c0 1.104.896 2 2 2s2-.896 2-2v-1.017h1.016c5.261 0 9.541-4.28 9.541-9.541v-3.017c0-5.26-4.28-9.54-9.541-9.54zm-6.032 0c-3.055 0-5.541-2.486-5.541-5.541s2.486-5.541 5.541-5.541h1.016v11.082zm11.573 12.557c0 3.055-2.486 5.541-5.541 5.541h-1.016v-14.098h1.016c3.055 0 5.541 2.485 5.541 5.541z" fill="#995222"/></g><g><g><g><path d="m147.031 115.833v66.5h18.425v-66.5c0-1.105-.895-2-2-2h-14.425c-1.104 0-2 .895-2 2z" fill="#76a34f"/></g></g><g><path d="m163.456 113.833h-3v58.5c0 2.761-2.239 5-5 5h-8.425v5h18.425v-66.5c0-1.105-.896-2-2-2z" fill="#648940"/></g><g><g><path d="m86.032 158.227v24.105h18.425v-24.105c0-1.105-.895-2-2-2h-14.425c-1.105 0-2 .896-2 2z" fill="#e63950"/></g></g><g><path d="m102.456 156.227h-3v16.105c0 2.761-2.239 5-5 5h-8.425v5h18.425v-24.105c0-1.104-.895-2-2-2z" fill="#d10028"/></g><g><g><path d="m116.531 134.989v47.344h18.425v-47.344c0-1.105-.895-2-2-2h-14.425c-1.104 0-2 .895-2 2z" fill="#ffc91d"/></g></g><g><path d="m132.956 132.989h-3v39.344c0 2.761-2.239 5-5 5h-8.425v5h18.425v-47.344c0-1.105-.895-2-2-2z" fill="#ffa91a"/></g><g><path d="m171.744 184.333h-92c-1.104 0-2-.896-2-2s.896-2 2-2h92c1.104 0 2 .896 2 2s-.896 2-2 2z" fill="#414042"/></g></g><g><path d="m171.744 204.333h-92c-1.104 0-2-.896-2-2s.896-2 2-2h92c1.104 0 2 .896 2 2s-.896 2-2 2z" fill="#414042"/></g></g></svg>