<svg enable-background="new 0 0 24 24" height="512" viewBox="0 0 24 24" width="512" xmlns="http://www.w3.org/2000/svg"><path d="m9.993 20v-10.271l-9.993-4.864v5.544 4.186z" fill="#ffcc80"/><path d="m20 4.86v5.32c-.3-.12-.63-.18-.97-.18-.66 0-1.3.24-1.811.68l-3.279 2.86c-.6.53-.94 1.28-.94 2.07 0 .8.34 1.56.94 2.08l.13.109-4.06 2.201v-10.27z" fill="#ffb74d"/><path d="m20 4.86-9.99 4.87-3.89-1.89-1.62-.79-4.5-2.19 9.99-4.86 4.26 2.07 1.7.82z" fill="#ffa726"/><path d="m15.731 2.796-9.882 4.924v4.974l-1.567-.798v-4.94l9.75-4.98z" fill="#795548"/><path d="m0 4.865v5.544 4.186l9.993 5.405v-10.271l-4.136-2.013-.008.004v4.974l-1.567-.798v-4.94l.007-.003z" fill="#deb26f"/><path d="m10 5.652-4.138 2.062.258.126 3.88 1.885zm-.01-5.652-9.99 4.86 4.294 2.09 5.706-2.914v-4.031z" fill="#de9121"/><path d="m10 4.036-5.706 2.914-.005.003-.007.003v4.94l1.567.798v-4.974l.008-.004.005-.002 4.138-2.062z" fill="#694a3f"/><path d="m17.743 14.87 1.781-1.555c.313-.272.345-.746.072-1.058-.272-.313-.746-.344-1.059-.072l-3.281 2.864-.015.02-.13.175-.047.069c-.04.092-.064.193-.064.301 0 .107.024.208.065.301l.047.069.13.175.015.02 3.281 2.863c.143.124.318.185.493.185.209 0 .417-.087.565-.257.272-.312.24-.786-.072-1.058l-1.758-1.534c2.622.079 4.733 2.268 4.733 4.962v1.909c0 .414.336.75.75.75s.75-.336.75-.75v-1.909c.001-3.53-2.795-6.405-6.256-6.47z" fill="#f44336"/><path d="m19.032 12c-.175 0-.351.061-.494.185l-3.281 2.864-.015.02-.13.175-.047.069c-.041.092-.065.193-.065.301 0 .107.024.208.065.301l.047.069.13.175.015.02 3.281 2.863c.143.124.318.185.493.185.209 0 .417-.087.565-.257.272-.312.24-.786-.072-1.058l-1.758-1.534c1.252.038 2.388.557 3.233 1.383v-1.909c-.948-.603-2.063-.96-3.257-.982l1.781-1.555c.313-.272.345-.746.072-1.058-.147-.17-.354-.257-.563-.257z" fill="#d43a2f"/></svg>