<svg id="Capa_1" enable-background="new 0 0 346.607 346.607" height="512" viewBox="0 0 346.607 346.607" width="512" xmlns="http://www.w3.org/2000/svg"><g><g><path d="m346.607 173.299c0 17.145-30.717 29.224-35.74 44.695-5.21 16.035 12.361 43.829 2.645 57.171-9.807 13.481-41.734 5.31-55.215 15.122-13.347 9.711-15.385 42.648-31.415 47.838-15.471 5.023-36.414-20.264-53.579-20.264s-38.089 25.287-53.579 20.264c-16.035-5.21-18.073-38.146-31.42-47.838-13.476-9.807-45.403-1.636-55.215-15.117-9.711-13.347 7.855-41.141 2.65-57.171-5.022-15.471-35.739-27.55-35.739-44.695s30.717-29.224 35.74-44.695c5.205-16.031-12.361-43.825-2.65-57.171 9.812-13.481 41.739-5.31 55.22-15.117 13.342-9.711 15.38-42.653 31.415-47.838 15.471-5.023 36.414 20.264 53.579 20.264 17.164 0 38.089-25.287 53.579-20.264 16.031 5.205 18.073 38.146 31.415 47.838 13.481 9.812 45.408 1.641 55.22 15.117 9.711 13.347-7.86 41.141-2.65 57.171 5.022 15.465 35.739 27.544 35.739 44.69z" fill="#2086a5"/><path d="m158.168 232.221c-5.075.007-9.944-2.009-13.529-5.602l-42.662-42.662c-7.474-7.472-7.476-19.588-.005-27.062 7.472-7.474 19.588-7.476 27.062-.005l29.133 29.129 59.439-59.434c7.473-7.474 19.59-7.475 27.064-.002s7.475 19.59.002 27.064l-72.972 72.972c-3.585 3.594-8.456 5.61-13.532 5.602z" fill="#f7d6bf"/></g></g></svg>